<svg width="20" height="20" viewBox="0 0 20 20" fill="none" xmlns="http://www.w3.org/2000/svg">
<path fill-rule="evenodd" clip-rule="evenodd" d="M5 2.5C5 3.88077 3.88073 5 2.5 5C1.11927 5 0 3.88077 0 2.5C0 1.11923 1.11927 0 2.5 0C3.88073 0 5 1.11923 5 2.5ZM5 10C5 11.3808 3.88073 12.5 2.5 12.5C1.11927 12.5 0 11.3808 0 10C0 8.61923 1.11927 7.5 2.5 7.5C3.88073 7.5 5 8.61923 5 10ZM2.5 20C3.88073 20 5 18.8808 5 17.5C5 16.1192 3.88073 15 2.5 15C1.11927 15 0 16.1192 0 17.5C0 18.8808 1.11927 20 2.5 20ZM12.5 2.5C12.5 3.88077 11.3807 5 10 5C8.61927 5 7.5 3.88077 7.5 2.5C7.5 1.11923 8.61927 0 10 0C11.3807 0 12.5 1.11923 12.5 2.5ZM10 12.5C11.3807 12.5 12.5 11.3808 12.5 10C12.5 8.61923 11.3807 7.5 10 7.5C8.61927 7.5 7.5 8.61923 7.5 10C7.5 11.3808 8.61927 12.5 10 12.5ZM12.5 17.5C12.5 18.8808 11.3807 20 10 20C8.61927 20 7.5 18.8808 7.5 17.5C7.5 16.1192 8.61927 15 10 15C11.3807 15 12.5 16.1192 12.5 17.5ZM17.5 5C18.8807 5 20 3.88077 20 2.5C20 1.11923 18.8807 0 17.5 0C16.1193 0 15 1.11923 15 2.5C15 3.88077 16.1193 5 17.5 5ZM20 10C20 11.3808 18.8807 12.5 17.5 12.5C16.1193 12.5 15 11.3808 15 10C15 8.61923 16.1193 7.5 17.5 7.5C18.8807 7.5 20 8.61923 20 10ZM17.5 20C18.8807 20 20 18.8808 20 17.5C20 16.1192 18.8807 15 17.5 15C16.1193 15 15 16.1192 15 17.5C15 18.8808 16.1193 20 17.5 20Z" fill="#9EA7B8"/>
</svg>
